<svg width="44" height="45" viewBox="0 0 44 45" fill="none" xmlns="http://www.w3.org/2000/svg">
<path d="M0 22.5C0 10.3497 9.84974 0.5 22 0.5C34.1503 0.5 44 10.3497 44 22.5C44 34.6503 34.1503 44.5 22 44.5C9.84974 44.5 0 34.6503 0 22.5Z" fill="#F0B90B"/>
<path d="M13.383 11.2386L21.9826 6.2749L30.5822 11.2386L27.4205 13.0724L21.9826 9.94239L16.5446 13.0724L13.383 11.2386ZM30.5822 17.4986L27.4205 15.6649L21.9826 18.7949L16.5446 15.6649L13.383 17.4986V21.1661L18.8209 24.2961V30.5561L21.9826 32.3899L25.1442 30.5561V24.2961L30.5822 21.1661V17.4986ZM30.5822 27.4262V23.7587L27.4205 25.5923V29.2598L30.5822 27.4262ZM32.8269 28.7224L27.3889 31.8524V35.5198L35.9886 30.5561V20.6286L32.8269 22.4624V28.7224ZM29.6654 14.3687L32.8269 16.2024V19.8699L35.9886 18.0361V14.3687L32.8269 12.5349L29.6654 14.3687ZM18.8209 33.1804V36.8478L21.9826 38.6815L25.1442 36.8478V33.1804L21.9826 35.014L18.8209 33.1804ZM13.383 27.4262L16.5446 29.2598V25.5923L13.383 23.7587V27.4262ZM18.8209 14.3687L21.9826 16.2024L25.1442 14.3687L21.9826 12.5349L18.8209 14.3687ZM11.1382 16.2024L14.2998 14.3687L11.1382 12.5349L7.97656 14.3687V18.0361L11.1382 19.8699V16.2024ZM11.1382 22.4624L7.97656 20.6286V30.5561L16.5762 35.5198V31.8524L11.1382 28.7224V22.4624Z" fill="white"/>
</svg>
